<svg version="1.1" xmlns="http://www.w3.org/2000/svg" style="display: block;" viewBox="291.07 312.09 1547.2527472527472 1114.0800000000002" width="550" height="396" preserveAspectRatio="none" xmlns:xlink="http://www.w3.org/1999/xlink">
<path transform="translate(0,0)" fill="currentColor" d="M 850.434 569.427 C 873.977 567.465 902.515 568.839 926.534 568.851 L 1070.49 569.813 C 1157.6 571.067 1248.1 569.77 1335.49 569.794 L 1625.81 569.845 C 1673.94 569.8 1722.54 567.285 1770.59 570.086 C 1786.95 571.281 1804.14 574.952 1816.77 586.306 C 1843.88 610.693 1842.47 658.061 1818.88 684.26 C 1803.79 701.03 1776.96 702.931 1755.9 703.5 C 1655.14 702.236 1554.36 701.846 1453.59 702.327 C 1339.21 701.381 1224.84 701.091 1110.46 701.456 L 931.499 701.494 C 896.098 701.617 861.043 703.506 825.58 700.675 C 793.484 697.728 769.406 675.083 767.914 642.455 C 765.373 586.867 801.889 572.321 850.434 569.427 z"/>
<path transform="translate(0,0)" fill="currentColor" d="M 1173.04 1010.62 C 1284.2 1003.31 1380.29 1087.35 1387.86 1198.48 C 1395.43 1309.61 1311.62 1405.91 1200.51 1413.74 C 1089.02 1421.6 992.337 1337.45 984.741 1225.94 C 977.145 1114.44 1061.52 1017.95 1173.04 1010.62 z"/>
<path transform="translate(0,0)" fill="currentColor" d="M 1078.51 796.431 C 1109.28 795.074 1146.19 796.957 1177.85 796.848 C 1250.71 796.129 1323.58 795.811 1396.44 795.894 L 1523.23 795.885 C 1550.97 795.89 1579.04 794.919 1606.61 798.259 C 1619.94 799.221 1632.33 806.046 1642.65 814.706 C 1669.73 837.419 1665.1 882.509 1643.64 907.231 C 1627.77 925.511 1609.21 926.514 1586.94 927.969 C 1554.78 928.667 1517.67 927.405 1484.77 927.377 L 1248.66 927.39 L 1126.36 927.388 C 1105.61 927.406 1086.1 928.621 1065.05 926.897 C 1009.63 922.356 980.391 862.354 1017.92 818.942 C 1033.44 800.992 1055.97 797.79 1078.51 796.431 z"/>
<path transform="translate(0,0)" fill="currentColor" d="M 385.921 1016.44 C 411.989 1015.08 440.055 1016.98 466.236 1017.05 L 640.304 1017.02 C 689.621 1016.81 738.939 1016.94 788.254 1017.43 C 821.345 1017.7 873.516 1011.91 899.545 1034.93 C 923.397 1056.01 922.716 1104.56 900.642 1127.24 C 881.652 1146.75 859.4 1149.16 833.75 1150.08 C 804.53 1150.67 775.374 1149.83 746.1 1149.82 L 541.411 1149.73 L 430.174 1150.47 C 398.692 1150.46 348.463 1153.79 323.801 1132.27 C 311.111 1120.98 303.503 1105.06 302.693 1088.1 C 301.764 1071.26 307.19 1050.77 319.038 1038.47 C 337.631 1019.16 361.193 1017.46 385.921 1016.44 z"/>
<path transform="translate(0,0)" fill="currentColor" d="M 999.525 341.431 C 1025.3 339.016 1055.49 342.027 1081.72 340.658 C 1094.81 339.974 1109.74 340.859 1123.02 340.973 L 1234.92 340.955 L 1329.17 340.937 C 1357.74 340.971 1407.1 337.497 1428.91 357.943 C 1454.67 382.083 1456.31 427.9 1430.68 453.066 C 1410.59 472.797 1385.12 474.28 1358.75 474.375 C 1279.55 475.87 1202.09 474.508 1123.05 474.511 L 1042.62 474.544 C 1011.81 474.55 953.171 477.267 928.904 455.624 C 897.669 427.765 905.172 358.372 951.618 347.555 C 971.498 342.925 978.496 342.506 999.525 341.431 z"/>
<path transform="translate(0,0)" fill="currentColor" d="M 648.193 795.455 C 649.246 795.305 649.126 795.291 650.138 795.261 C 685.071 794.23 719.538 795.984 754.542 795.971 L 815.447 795.874 C 841.816 795.816 877.815 792.99 898.367 812.307 C 924.839 837.189 924.639 880.268 899.747 906.306 C 879.812 927.158 854.342 926.159 827.75 926.621 C 780.725 928.327 733.105 927.073 686.002 927.372 C 660.905 926.504 634.379 929.446 609.55 926.106 C 547.09 917.705 537.022 825.629 595.13 803.224 C 614.768 795.653 627.706 796.042 648.193 795.455 z"/>
<path transform="translate(0,0)" fill="currentColor" d="M 696.601 1240.47 C 736.44 1239.4 777.351 1240.49 817.142 1239.75 C 863.39 1238.88 913.788 1244.34 915.79 1301.94 C 916.411 1319.83 907.979 1340.64 895.403 1353.29 C 875.402 1373.92 846.027 1370.34 819.5 1370.27 C 791.384 1370.24 763.265 1370.15 735.083 1370.34 C 706.697 1370.64 677.986 1373.01 649.913 1367.69 C 621.51 1362.31 600.094 1337.71 599.095 1308.69 C 598.65 1290.76 605.317 1273.38 617.64 1260.34 C 637.447 1239.61 669.65 1241.17 696.601 1240.47 z"/>
</svg>
